<svg width="335" height="69" viewBox="0 0 335 69" fill="none" xmlns="http://www.w3.org/2000/svg">
<mask id="mask0_138_5099" style="mask-type:alpha" maskUnits="userSpaceOnUse" x="0" y="0" width="335" height="69">
<rect width="335" height="69" rx="10" fill="#E9FBFF"/>
</mask>
<g mask="url(#mask0_138_5099)">
<path d="M353.61 -25.626L373.691 -15.626V173.374L307.784 199.874L227.975 136.874L353.61 -25.626Z" fill="#F1F1F1"/>
<path d="M216.646 128.874L345.886 -37.1263C343.483 -38.293 335.382 -43.0263 322.2 -52.6263C309.019 -62.2263 288.56 -62.6263 279.979 -61.6263L123.45 -25.6263C118.644 -24.293 108.415 -20.1263 105.944 -14.1263C103.472 -8.12632 119.331 11.0403 127.569 19.8737L216.646 128.874Z" fill="#F1F1F1"/>
<path d="M194.396 105.874C206.067 98.874 230.542 82.674 235.073 73.874C240.737 62.874 250.52 40.874 254.124 38.374C257.729 35.874 254.124 30.874 254.124 26.374C254.124 21.874 264.422 12.374 254.124 0.374023C243.826 -11.626 237.648 -8.62598 243.826 -21.626C248.769 -32.026 245.886 -35.626 243.826 -36.126L254.124 -56.626" stroke="white" stroke-width="2"/>
<path d="M120.251 16.374L126.429 3.87402L205.724 15.874L254.639 33.874" stroke="white" stroke-width="2"/>
<path d="M337.868 29L321.391 19H318.302L265.782 85.5L291.012 101.5L337.868 29Z" fill="#EBFFED"/>
<path d="M337.868 29L321.391 19H318.302L265.782 85.5L291.012 101.5L337.868 29Z" fill="#EBFFED"/>
<path d="M326.724 27.874L303.554 58.874L290.682 74.374H283.473L268.026 91.874" stroke="white" stroke-width="2"/>
<path d="M288.623 54.374C289.481 55.374 292.227 57.474 296.346 57.874C300.465 58.274 304.928 60.374 306.644 61.374L310.248 64.874" stroke="white" stroke-width="2"/>
</g>
</svg>
