<svg width="29" height="58" viewBox="0 0 29 58" fill="none" xmlns="http://www.w3.org/2000/svg">
<g filter="url(#filter0_d_31_491)">
<circle cx="15" cy="40.1667" r="9" fill="#0ECE21"/>
</g>
<circle cx="15" cy="40.1667" r="6" fill="white"/>
<mask id="path-3-inside-1_31_491" fill="white">
<path fill-rule="evenodd" clip-rule="evenodd" d="M16.5926 27.7604C23.0859 26.5446 28 20.8462 28 14C28 6.26801 21.732 0 14 0C6.26801 0 0 6.26801 0 14C0 21.0273 5.17749 26.8452 11.9259 27.8474V32.6669H16.5926V27.7604Z"/>
</mask>
<path fill-rule="evenodd" clip-rule="evenodd" d="M16.5926 27.7604C23.0859 26.5446 28 20.8462 28 14C28 6.26801 21.732 0 14 0C6.26801 0 0 6.26801 0 14C0 21.0273 5.17749 26.8452 11.9259 27.8474V32.6669H16.5926V27.7604Z" fill="#25D62A"/>
<path d="M16.5926 27.7604L16.4086 26.7775L15.5926 26.9303V27.7604H16.5926ZM11.9259 27.8474H12.9259V26.985L12.0728 26.8583L11.9259 27.8474ZM11.9259 32.6669H10.9259V33.6669H11.9259V32.6669ZM16.5926 32.6669V33.6669H17.5926V32.6669H16.5926ZM27 14C27 20.3561 22.4375 25.6486 16.4086 26.7775L16.7766 28.7433C23.7344 27.4405 29 21.3363 29 14H27ZM14 1C21.1797 1 27 6.8203 27 14H29C29 5.71573 22.2843 -1 14 -1V1ZM1 14C1 6.8203 6.8203 1 14 1V-1C5.71573 -1 -1 5.71573 -1 14H1ZM12.0728 26.8583C5.80732 25.9278 1 20.5244 1 14H-1C-1 21.5301 4.54766 27.7627 11.779 28.8366L12.0728 26.8583ZM12.9259 32.6669V27.8474H10.9259V32.6669H12.9259ZM16.5926 31.6669H11.9259V33.6669H16.5926V31.6669ZM15.5926 27.7604V32.6669H17.5926V27.7604H15.5926Z" fill="white" mask="url(#path-3-inside-1_31_491)"/>
<path fill-rule="evenodd" clip-rule="evenodd" d="M7.36145 9.7917C7.36145 8.44958 8.51086 7.36157 9.92874 7.36157H17.3739C18.7917 7.36157 19.9412 8.44958 19.9412 9.7917V16.9174C19.9412 17.8917 19.3354 18.7321 18.461 19.1196C18.2926 19.1942 18.1711 19.3537 18.1711 19.5378C18.1711 20.2089 17.5964 20.7529 16.8874 20.7529H16.4753C15.7664 20.7529 15.1917 20.2089 15.1917 19.5378C15.1917 19.4327 15.1065 19.3476 15.0014 19.3476H12.3282C12.2231 19.3476 12.138 19.4327 12.138 19.5378C12.138 20.2089 11.5632 20.7529 10.8543 20.7529H10.4422C9.73326 20.7529 9.15855 20.2089 9.15855 19.5378C9.15855 19.3589 9.03957 19.2043 8.87505 19.1341C7.98266 18.7534 7.36145 17.9041 7.36145 16.9174V9.7917ZM10.7735 17.9326H10.5061C9.60872 17.868 8.90182 17.1583 8.90182 16.2923C8.90182 15.3837 9.67995 14.6472 10.6398 14.6472C11.5997 14.6472 12.3778 15.3837 12.3778 16.2923C12.3778 17.1583 11.6709 17.868 10.7735 17.9326ZM16.8066 17.9326H16.5392C15.6418 17.868 14.9349 17.1583 14.9349 16.2923C14.9349 15.3837 15.7131 14.6472 16.6729 14.6472C17.6328 14.6472 18.4109 15.3837 18.4109 16.2923C18.4109 17.1583 17.704 17.868 16.8066 17.9326ZM8.90182 9.6654C8.90182 9.12855 9.36159 8.69335 9.92874 8.69335H17.4752C18.0424 8.69335 18.5021 9.12855 18.5021 9.6654V11.8733C18.5021 12.4102 18.0424 12.8454 17.4752 12.8454H9.92874C9.36159 12.8454 8.90182 12.4102 8.90182 11.8733V9.6654Z" fill="url(#paint0_linear_31_491)"/>
<defs>
<filter id="filter0_d_31_491" x="1" y="29.1667" width="28" height="28" filterUnits="userSpaceOnUse" color-interpolation-filters="sRGB">
<feFlood flood-opacity="0" result="BackgroundImageFix"/>
<feColorMatrix in="SourceAlpha" type="matrix" values="0 0 0 0 0 0 0 0 0 0 0 0 0 0 0 0 0 0 127 0" result="hardAlpha"/>
<feOffset dy="3"/>
<feGaussianBlur stdDeviation="2.5"/>
<feComposite in2="hardAlpha" operator="out"/>
<feColorMatrix type="matrix" values="0 0 0 0 0 0 0 0 0 0 0 0 0 0 0 0 0 0 0.25 0"/>
<feBlend mode="normal" in2="BackgroundImageFix" result="effect1_dropShadow_31_491"/>
<feBlend mode="normal" in="SourceGraphic" in2="effect1_dropShadow_31_491" result="shape"/>
</filter>
<linearGradient id="paint0_linear_31_491" x1="13.6513" y1="7.36157" x2="13.6513" y2="20.7529" gradientUnits="userSpaceOnUse">
<stop stop-color="white"/>
</linearGradient>
</defs>
</svg>
