<svg width="50" height="50" viewBox="0 0 50 50" fill="none" xmlns="http://www.w3.org/2000/svg">
<rect width="50" height="50" fill="none"/>
<g clip-path="url(#clip0_94_1820)">
<path fill-rule="evenodd" clip-rule="evenodd" d="M3 22.4458C3 33.6244 11.1718 42.8944 21.8675 44.6079V54H29.6747V50H30V44.4293C40.2129 42.3245 47.8916 33.2819 47.8916 22.4458C47.8916 10.0493 37.8422 0 25.4458 0C13.0493 0 3 10.0493 3 22.4458ZM25.4458 39.6867C34.9677 39.6867 42.6868 31.9677 42.6868 22.4458C42.6868 12.9239 34.9677 5.20482 25.4458 5.20482C15.9239 5.20482 8.20483 12.9239 8.20483 22.4458C8.20483 31.9677 15.9239 39.6867 25.4458 39.6867Z" fill="#04D219"/>
<path fill-rule="evenodd" clip-rule="evenodd" d="M15 15.607C15 13.4552 16.8428 11.7108 19.1161 11.7108H31.0526C33.3259 11.7108 35.1687 13.4552 35.1687 15.607V27.0315C35.1687 28.7609 33.9783 30.2272 32.3308 30.7361V31.2326C32.3308 32.3085 31.4094 33.1807 30.2727 33.1807H29.612C28.4754 33.1807 27.554 32.3085 27.554 31.2326V30.9276H22.658V31.2326C22.658 32.3085 21.7366 33.1807 20.6 33.1807H19.9393C18.8027 33.1807 17.8812 32.3085 17.8812 31.2326V30.7493C16.2113 30.2528 15 28.776 15 27.0315V15.607ZM20.4704 28.6591H20.0418C18.603 28.5555 17.4696 27.4177 17.4696 26.0292C17.4696 24.5725 18.7172 23.3916 20.2561 23.3916C21.795 23.3916 23.0426 24.5725 23.0426 26.0292C23.0426 27.4177 21.9092 28.5555 20.4704 28.6591ZM30.1432 28.6591H29.7145C28.2757 28.5555 27.1424 27.4177 27.1424 26.0292C27.1424 24.5725 28.3899 23.3916 29.9288 23.3916C31.4677 23.3916 32.7153 24.5725 32.7153 26.0292C32.7153 27.4177 31.5819 28.5555 30.1432 28.6591ZM17.4696 15.4045C17.4696 14.5438 18.2068 13.846 19.1161 13.846H31.2151C32.1244 13.846 32.8615 14.5438 32.8615 15.4045V18.9444C32.8615 19.8051 32.1244 20.5028 31.2151 20.5028H19.1161C18.2068 20.5028 17.4696 19.8051 17.4696 18.9444V15.4045Z" fill="#04D219"/>
</g>
<defs>
<clipPath id="clip0_94_1820">
<rect width="50" height="50" fill="none"/>
</clipPath>
</defs>
</svg>
