<svg width="42" height="42" viewBox="0 0 42 42" fill="none" xmlns="http://www.w3.org/2000/svg">
<circle cx="21" cy="21" r="21" fill="#18A8FA"/>
<path d="M15.375 12.75C14.8558 12.75 14.3483 12.9039 13.9166 13.1924C13.485 13.4808 13.1485 13.8908 12.9498 14.3705C12.7511 14.8501 12.6992 15.3779 12.8004 15.8871C12.9017 16.3963 13.1517 16.864 13.5188 17.2312C13.886 17.5983 14.3537 17.8483 14.8629 17.9496C15.3721 18.0508 15.8999 17.9989 16.3795 17.8002C16.8592 17.6015 17.2692 17.265 17.5576 16.8334C17.846 16.4017 18 15.8942 18 15.375C18 14.6788 17.7234 14.0111 17.2312 13.5188C16.7389 13.0266 16.0712 12.75 15.375 12.75ZM15.375 16.25C15.2019 16.25 15.0328 16.1987 14.8889 16.1025C14.745 16.0064 14.6328 15.8697 14.5666 15.7098C14.5004 15.55 14.4831 15.374 14.5168 15.2043C14.5506 15.0346 14.6339 14.8786 14.7563 14.7563C14.8787 14.6339 15.0346 14.5506 15.2043 14.5168C15.374 14.483 15.55 14.5004 15.7098 14.5666C15.8697 14.6328 16.0064 14.745 16.1025 14.8889C16.1987 15.0328 16.25 15.2019 16.25 15.375C16.25 15.6071 16.1578 15.8296 15.9937 15.9937C15.8296 16.1578 15.6071 16.25 15.375 16.25Z" fill="white"/>
<path d="M21.5 12.75C20.9808 12.75 20.4733 12.9039 20.0416 13.1924C19.61 13.4808 19.2735 13.8908 19.0748 14.3705C18.8761 14.8501 18.8242 15.3779 18.9254 15.8871C19.0267 16.3963 19.2767 16.864 19.6438 17.2312C20.011 17.5983 20.4787 17.8483 20.9879 17.9496C21.4971 18.0508 22.0249 17.9989 22.5045 17.8002C22.9842 17.6015 23.3942 17.265 23.6826 16.8334C23.971 16.4017 24.125 15.8942 24.125 15.375C24.125 14.6788 23.8484 14.0111 23.3562 13.5188C22.8639 13.0266 22.1962 12.75 21.5 12.75ZM21.5 16.25C21.3269 16.25 21.1578 16.1987 21.0139 16.1025C20.87 16.0064 20.7578 15.8697 20.6916 15.7098C20.6254 15.55 20.6081 15.374 20.6418 15.2043C20.6756 15.0346 20.7589 14.8786 20.8813 14.7563C21.0037 14.6339 21.1596 14.5506 21.3293 14.5168C21.499 14.483 21.675 14.5004 21.8348 14.5666C21.9947 14.6328 22.1314 14.745 22.2275 14.8889C22.3237 15.0328 22.375 15.2019 22.375 15.375C22.375 15.6071 22.2828 15.8296 22.1187 15.9937C21.9546 16.1578 21.7321 16.25 21.5 16.25Z" fill="white"/>
<path d="M27.625 18C28.1442 18 28.6517 17.846 29.0834 17.5576C29.515 17.2692 29.8515 16.8592 30.0502 16.3795C30.2489 15.8999 30.3008 15.3721 30.1996 14.8629C30.0983 14.3537 29.8483 13.886 29.4812 13.5188C29.114 13.1517 28.6463 12.9017 28.1371 12.8004C27.6279 12.6991 27.1001 12.7511 26.6205 12.9498C26.1408 13.1485 25.7308 13.4849 25.4424 13.9166C25.154 14.3483 25 14.8558 25 15.375C25 16.0712 25.2766 16.7389 25.7688 17.2312C26.2611 17.7234 26.9288 18 27.625 18ZM27.625 14.5C27.7981 14.5 27.9672 14.5513 28.1111 14.6475C28.255 14.7436 28.3672 14.8803 28.4334 15.0401C28.4996 15.2 28.5169 15.376 28.4832 15.5457C28.4494 15.7154 28.3661 15.8713 28.2437 15.9937C28.1213 16.1161 27.9654 16.1994 27.7957 16.2332C27.626 16.2669 27.45 16.2496 27.2902 16.1834C27.1303 16.1172 26.9936 16.005 26.8975 15.8611C26.8013 15.7172 26.75 15.5481 26.75 15.375C26.75 15.1429 26.8422 14.9204 27.0063 14.7563C27.1704 14.5922 27.3929 14.5 27.625 14.5Z" fill="white"/>
<path d="M15.375 18.875C14.8558 18.875 14.3483 19.029 13.9166 19.3174C13.485 19.6058 13.1485 20.0158 12.9498 20.4955C12.7511 20.9751 12.6992 21.5029 12.8004 22.0121C12.9017 22.5213 13.1517 22.989 13.5188 23.3562C13.886 23.7233 14.3537 23.9733 14.8629 24.0746C15.3721 24.1758 15.8999 24.1239 16.3795 23.9252C16.8592 23.7265 17.2692 23.3901 17.5576 22.9584C17.846 22.5267 18 22.0192 18 21.5C18 20.8038 17.7234 20.1361 17.2312 19.6438C16.7389 19.1516 16.0712 18.875 15.375 18.875ZM15.375 22.375C15.2019 22.375 15.0328 22.3237 14.8889 22.2275C14.745 22.1314 14.6328 21.9947 14.5666 21.8348C14.5004 21.675 14.4831 21.499 14.5168 21.3293C14.5506 21.1596 14.6339 21.0037 14.7563 20.8813C14.8787 20.7589 15.0346 20.6756 15.2043 20.6418C15.374 20.6081 15.55 20.6254 15.7098 20.6916C15.8697 20.7578 16.0064 20.87 16.1025 21.0139C16.1987 21.1578 16.25 21.3269 16.25 21.5C16.25 21.7321 16.1578 21.9546 15.9937 22.1187C15.8296 22.2828 15.6071 22.375 15.375 22.375Z" fill="white"/>
<path d="M21.5 18.875C20.9808 18.875 20.4733 19.029 20.0416 19.3174C19.61 19.6058 19.2735 20.0158 19.0748 20.4955C18.8761 20.9751 18.8242 21.5029 18.9254 22.0121C19.0267 22.5213 19.2767 22.989 19.6438 23.3562C20.011 23.7233 20.4787 23.9733 20.9879 24.0746C21.4971 24.1758 22.0249 24.1239 22.5045 23.9252C22.9842 23.7265 23.3942 23.3901 23.6826 22.9584C23.971 22.5267 24.125 22.0192 24.125 21.5C24.125 20.8038 23.8484 20.1361 23.3562 19.6438C22.8639 19.1516 22.1962 18.875 21.5 18.875ZM21.5 22.375C21.3269 22.375 21.1578 22.3237 21.0139 22.2275C20.87 22.1314 20.7578 21.9947 20.6916 21.8348C20.6254 21.675 20.6081 21.499 20.6418 21.3293C20.6756 21.1596 20.7589 21.0037 20.8813 20.8813C21.0037 20.7589 21.1596 20.6756 21.3293 20.6418C21.499 20.6081 21.675 20.6254 21.8348 20.6916C21.9947 20.7578 22.1314 20.87 22.2275 21.0139C22.3237 21.1578 22.375 21.3269 22.375 21.5C22.375 21.7321 22.2828 21.9546 22.1187 22.1187C21.9546 22.2828 21.7321 22.375 21.5 22.375Z" fill="white"/>
<path d="M27.625 18.875C27.1058 18.875 26.5983 19.029 26.1666 19.3174C25.735 19.6058 25.3985 20.0158 25.1998 20.4955C25.0011 20.9751 24.9492 21.5029 25.0504 22.0121C25.1517 22.5213 25.4017 22.989 25.7688 23.3562C26.136 23.7233 26.6037 23.9733 27.1129 24.0746C27.6221 24.1758 28.1499 24.1239 28.6295 23.9252C29.1092 23.7265 29.5192 23.3901 29.8076 22.9584C30.096 22.5267 30.25 22.0192 30.25 21.5C30.25 20.8038 29.9734 20.1361 29.4812 19.6438C28.9889 19.1516 28.3212 18.875 27.625 18.875ZM27.625 22.375C27.4519 22.375 27.2828 22.3237 27.1389 22.2275C26.995 22.1314 26.8828 21.9947 26.8166 21.8348C26.7504 21.675 26.7331 21.499 26.7668 21.3293C26.8006 21.1596 26.8839 21.0037 27.0063 20.8813C27.1287 20.7589 27.2846 20.6756 27.4543 20.6418C27.624 20.6081 27.8 20.6254 27.9598 20.6916C28.1197 20.7578 28.2564 20.87 28.3525 21.0139C28.4487 21.1578 28.5 21.3269 28.5 21.5C28.5 21.7321 28.4078 21.9546 28.2437 22.1187C28.0796 22.2828 27.8571 22.375 27.625 22.375Z" fill="white"/>
<path d="M15.375 25C14.8558 25 14.3483 25.154 13.9166 25.4424C13.485 25.7308 13.1485 26.1408 12.9498 26.6205C12.7511 27.1001 12.6992 27.6279 12.8004 28.1371C12.9017 28.6463 13.1517 29.114 13.5188 29.4812C13.886 29.8483 14.3537 30.0983 14.8629 30.1996C15.3721 30.3009 15.8999 30.2489 16.3795 30.0502C16.8592 29.8515 17.2692 29.5151 17.5576 29.0834C17.846 28.6517 18 28.1442 18 27.625C18 26.9288 17.7234 26.2611 17.2312 25.7689C16.7389 25.2766 16.0712 25 15.375 25ZM15.375 28.5C15.2019 28.5 15.0328 28.4487 14.8889 28.3525C14.745 28.2564 14.6328 28.1197 14.5666 27.9599C14.5004 27.8 14.4831 27.624 14.5168 27.4543C14.5506 27.2846 14.6339 27.1287 14.7563 27.0063C14.8787 26.8839 15.0346 26.8006 15.2043 26.7668C15.374 26.7331 15.55 26.7504 15.7098 26.8166C15.8697 26.8828 16.0064 26.995 16.1025 27.1389C16.1987 27.2828 16.25 27.4519 16.25 27.625C16.25 27.8571 16.1578 28.0796 15.9937 28.2437C15.8296 28.4078 15.6071 28.5 15.375 28.5Z" fill="white"/>
<path d="M21.5 25C20.9808 25 20.4733 25.154 20.0416 25.4424C19.61 25.7308 19.2735 26.1408 19.0748 26.6205C18.8761 27.1001 18.8242 27.6279 18.9254 28.1371C19.0267 28.6463 19.2767 29.114 19.6438 29.4812C20.011 29.8483 20.4787 30.0983 20.9879 30.1996C21.4971 30.3009 22.0249 30.2489 22.5045 30.0502C22.9842 29.8515 23.3942 29.5151 23.6826 29.0834C23.971 28.6517 24.125 28.1442 24.125 27.625C24.125 26.9288 23.8484 26.2611 23.3562 25.7689C22.8639 25.2766 22.1962 25 21.5 25ZM21.5 28.5C21.3269 28.5 21.1578 28.4487 21.0139 28.3525C20.87 28.2564 20.7578 28.1197 20.6916 27.9599C20.6254 27.8 20.6081 27.624 20.6418 27.4543C20.6756 27.2846 20.7589 27.1287 20.8813 27.0063C21.0037 26.8839 21.1596 26.8006 21.3293 26.7668C21.499 26.7331 21.675 26.7504 21.8348 26.8166C21.9947 26.8828 22.1314 26.995 22.2275 27.1389C22.3237 27.2828 22.375 27.4519 22.375 27.625C22.375 27.8571 22.2828 28.0796 22.1187 28.2437C21.9546 28.4078 21.7321 28.5 21.5 28.5Z" fill="white"/>
<path d="M27.625 25C27.1058 25 26.5983 25.154 26.1666 25.4424C25.735 25.7308 25.3985 26.1408 25.1998 26.6205C25.0011 27.1001 24.9492 27.6279 25.0504 28.1371C25.1517 28.6463 25.4017 29.114 25.7688 29.4812C26.136 29.8483 26.6037 30.0983 27.1129 30.1996C27.6221 30.3009 28.1499 30.2489 28.6295 30.0502C29.1092 29.8515 29.5192 29.5151 29.8076 29.0834C30.096 28.6517 30.25 28.1442 30.25 27.625C30.25 26.9288 29.9734 26.2611 29.4812 25.7689C28.9889 25.2766 28.3212 25 27.625 25ZM27.625 28.5C27.4519 28.5 27.2828 28.4487 27.1389 28.3525C26.995 28.2564 26.8828 28.1197 26.8166 27.9599C26.7504 27.8 26.7331 27.624 26.7668 27.4543C26.8006 27.2846 26.8839 27.1287 27.0063 27.0063C27.1287 26.8839 27.2846 26.8006 27.4543 26.7668C27.624 26.7331 27.8 26.7504 27.9598 26.8166C28.1197 26.8828 28.2564 26.995 28.3525 27.1389C28.4487 27.2828 28.5 27.4519 28.5 27.625C28.5 27.8571 28.4078 28.0796 28.2437 28.2437C28.0796 28.4078 27.8571 28.5 27.625 28.5Z" fill="white"/>
</svg>
