<svg width="36" height="34" viewBox="0 0 36 34" fill="none" xmlns="http://www.w3.org/2000/svg">
<ellipse cx="17.5231" cy="17" rx="17.5231" ry="17" fill="#18A8FA"/>
<path d="M19.473 26.1541H19.4191C19.2213 26.1425 19.033 26.0679 18.8835 25.9417C18.734 25.8156 18.6316 25.6451 18.5924 25.4567L17.0737 18.3079L9.70501 16.8346C9.51043 16.7971 9.33411 16.6982 9.20354 16.5533C9.07297 16.4084 8.99549 16.2257 8.98318 16.0336C8.97087 15.8415 9.02442 15.6509 9.13549 15.4914C9.24655 15.332 9.40889 15.2126 9.59718 15.152L23.9751 10.5054C24.1365 10.4407 24.3138 10.4231 24.4853 10.4546C24.6569 10.4862 24.8153 10.5655 24.9411 10.6829C25.0669 10.8004 25.1547 10.9509 25.1938 11.1159C25.2329 11.281 25.2216 11.4536 25.1613 11.6126L20.3716 25.5613C20.3091 25.7417 20.1874 25.8973 20.0251 26.0044C19.8629 26.1114 19.669 26.164 19.473 26.1541ZM13.3624 15.7797L18.0262 16.7038C18.2006 16.7365 18.361 16.8185 18.4874 16.9395C18.6137 17.0605 18.7003 17.2151 18.7361 17.3838L19.6797 21.9085L22.8428 12.711L13.3624 15.7797Z" fill="white"/>
</svg>
