<svg width="50" height="50" viewBox="0 0 50 50" fill="none" xmlns="http://www.w3.org/2000/svg">
<path d="M24.9999 43.75C24.7258 43.7516 24.454 43.6991 24.2001 43.5954C23.9463 43.4917 23.7154 43.3389 23.5208 43.1459L7.33327 26.9375C5.30277 24.8858 4.16382 22.1158 4.16382 19.2292C4.16382 16.3426 5.30277 13.5726 7.33327 11.5208C9.37965 9.48024 12.1517 8.33433 15.0416 8.33433C17.9315 8.33433 20.7036 9.48024 22.7499 11.5208L24.9999 13.7708L27.2499 11.5208C29.2963 9.48024 32.0683 8.33433 34.9583 8.33433C37.8482 8.33433 40.6202 9.48024 42.6666 11.5208C44.6971 13.5726 45.836 16.3426 45.836 19.2292C45.836 22.1158 44.6971 24.8858 42.6666 26.9375L26.4791 43.1459C26.2844 43.3389 26.0536 43.4917 25.7997 43.5954C25.5459 43.6991 25.2741 43.7516 24.9999 43.75Z" fill="black"/>
</svg>
