<svg width="50" height="50" viewBox="0 0 50 50" fill="none" xmlns="http://www.w3.org/2000/svg">
<path d="M26.1893 10.4602L24.9999 11.6495L23.8106 10.4602L23.8091 10.4587C21.4815 8.1377 18.3286 6.83433 15.0416 6.83433C11.7546 6.83433 8.60167 8.1377 6.27411 10.4587L6.27409 10.4587L6.26711 10.4657C3.95868 12.7983 2.66382 15.9475 2.66382 19.2292C2.66382 22.5109 3.95868 25.6601 6.26711 27.9926L6.2671 27.9927L6.27193 27.9975L22.4594 44.2058L22.4644 44.2108C22.7993 44.5429 23.1963 44.8057 23.6329 44.984L24.2001 43.5954L23.6329 44.984C24.0668 45.1612 24.5313 45.2516 24.9999 45.25C25.4686 45.2516 25.933 45.1612 26.3669 44.984L25.7997 43.5954L26.3669 44.984C26.8035 44.8057 27.2006 44.5429 27.5354 44.2108L27.5404 44.2058L43.7279 27.9975L43.7328 27.9927C46.0412 25.6601 47.336 22.5109 47.336 19.2292C47.336 15.9475 46.0412 12.7983 43.7328 10.4657L43.7328 10.4657L43.7258 10.4587C41.3982 8.1377 38.2453 6.83433 34.9583 6.83433C31.6712 6.83433 28.5183 8.1377 26.1908 10.4587L26.1893 10.4602Z" stroke="black" stroke-width="3"/>
</svg>
