<svg width="182" height="151" viewBox="0 0 182 151" fill="none" xmlns="http://www.w3.org/2000/svg">
<path fill-rule="evenodd" clip-rule="evenodd" d="M161.909 0H94.612L48.5161 20.8869L12.4613 20.8869C-9.12099 25.5284 2.74926 53.3775 8.14482 53.3775L10.7461 53.3775C-1.18092 55.5877 5.37895 68.8492 8.36071 68.8492H16.7725C16.0902 72.5265 15.7357 76.2983 15.7357 80.1415C15.7357 87.1334 16.909 93.8887 19.095 100.269C-9.83553 111.607 9.65558 149.366 18.8819 149.366L80.2245 149.366C85.8976 150.436 91.7901 151 97.8351 151C119.28 151 138.805 143.903 153.429 132.283H161.259C187.73 128.326 183.966 109.793 176.56 100.314C177.067 98.8383 177.519 97.3424 177.916 95.8281C178.966 94.3261 179.227 92.5129 179.021 90.7463C179.623 87.2869 179.935 83.7456 179.935 80.1415C179.935 62.8094 172.725 46.9307 160.752 34.6177C190.887 27.0033 171.184 0 161.909 0Z" fill="#F1F7FF"/>
<ellipse cx="99.1921" cy="74.6511" rx="75.2625" ry="74.6511" fill="#F1F7FF"/>
<path d="M119.279 99.7191C118.816 100.929 116.95 103.573 113.186 104.468" stroke="black"/>
<path d="M123.392 100.953C122.85 102.944 120.108 107.433 113.473 109.467" stroke="black"/>
<path d="M40.4852 54.3588C40.892 55.3688 39.7455 56.1513 38.4141 57.5263C38.316 57.0526 38.1646 55.845 38.344 54.8043C38.5683 53.5033 40.162 53.5561 40.4852 54.3588Z" fill="#A9C9EC"/>
<path d="M38.3014 51.6229C38.7082 52.6329 37.5617 53.4155 36.2303 54.7905C36.1322 54.3168 35.9808 53.1092 36.1602 52.0684C36.3845 50.7675 37.9782 50.8203 38.3014 51.6229Z" fill="#A9C9EC"/>
<path d="M36.1173 48.3399C36.5241 49.3499 35.3776 50.1325 34.0462 51.5074C33.9481 51.0337 33.7967 49.8262 33.9761 48.7854C34.2004 47.4845 35.7941 47.5373 36.1173 48.3399Z" fill="#A9C9EC"/>
<path d="M35.2408 44.9497C35.2546 46.0933 33.9408 46.4576 32.2513 47.3415C32.3288 46.8382 32.6157 45.5903 33.1439 44.6255C33.8041 43.4196 35.2298 44.0408 35.2408 44.9497Z" fill="#A9C9EC"/>
<path d="M32.2068 59.604C32.945 60.4034 34.1402 59.6979 35.9489 59.0773C35.5632 58.7864 34.5378 58.1342 33.522 57.8531C32.2521 57.5016 31.6202 58.9688 32.2068 59.604Z" fill="#A9C9EC"/>
<path d="M30.6687 56.4577C31.4069 57.2571 32.6021 56.5515 34.4108 55.931C34.0251 55.64 32.9998 54.9878 31.9839 54.7067C30.714 54.3553 30.0821 55.8224 30.6687 56.4577Z" fill="#A9C9EC"/>
<path d="M28.637 53.078C29.3752 53.8774 30.5703 53.1719 32.3791 52.5513C31.9934 52.2604 30.968 51.6082 29.9521 51.3271C28.6823 50.9756 28.0504 52.4428 28.637 53.078Z" fill="#A9C9EC"/>
<path d="M26.8479 49.4517C27.52 50.3762 28.79 49.8798 30.6713 49.5743C30.3086 49.2176 29.3334 48.3902 28.334 47.9342C27.0848 47.3642 26.3138 48.7171 26.8479 49.4517Z" fill="#A9C9EC"/>
<path d="M27.1124 43.7557C28.2944 43.5589 28.8818 44.8622 30.0673 46.4718C29.5338 46.4718 28.1959 46.3735 27.1124 45.98C25.7581 45.4882 26.1731 43.912 27.1124 43.7557Z" fill="#A9C9EC"/>
<path d="M32.3272 41.7795C33.0393 42.7399 32.1493 43.8565 31.2592 45.6444C31.0166 45.1703 30.4956 43.9367 30.3523 42.7945C30.1731 41.3668 31.7613 41.0162 32.3272 41.7795Z" fill="#A9C9EC"/>
<path d="M28.5346 39.9767C29.6036 40.5095 29.315 41.9091 29.3298 43.9071C28.8993 43.5946 27.8771 42.7314 27.2329 41.7782C26.4277 40.5868 27.6851 39.5532 28.5346 39.9767Z" fill="#A9C9EC"/>
<path d="M31.6489 47.5756C33.1928 53.7643 36.1261 58.1738 43.2278 64.9813C38.0816 57.1165 34.1191 54.3832 31.6489 47.5756Z" fill="#A9C9EC"/>
<ellipse cx="60.9818" cy="101.34" rx="9.26307" ry="2.32076" fill="#D4E5EA"/>
<ellipse cx="108.069" cy="101.34" rx="9.26307" ry="2.32076" fill="#D4E5EA"/>
<path fill-rule="evenodd" clip-rule="evenodd" d="M33.3111 109.99C33.3111 105.64 29.7922 102.113 25.4515 102.113C22.0438 102.113 19.1426 104.287 18.0529 107.326C16.9335 106.192 15.3797 105.489 13.6622 105.489C10.8355 105.489 8.45234 107.392 7.71924 109.99L33.3111 109.99Z" fill="url(#paint0_linear_395_853)"/>
<path fill-rule="evenodd" clip-rule="evenodd" d="M155.928 108.443H137.402C137.402 108.443 137.402 108.443 137.402 108.443C137.402 105.802 139.95 103.661 143.092 103.661C145.559 103.661 147.659 104.98 148.448 106.825C149.258 106.137 150.383 105.71 151.626 105.71C153.673 105.71 155.398 106.866 155.928 108.443Z" fill="url(#paint1_linear_395_853)" fill-opacity="0.3"/>
<rect x="39.3682" y="84.321" width="3.85962" height="3.86794" rx="1.92981" fill="#D2EFFB"/>
<rect x="39.3682" y="84.321" width="1.54385" height="3.86794" rx="0.771923" fill="white"/>
<rect x="70.2449" y="87.4153" width="21.6138" height="0.773582" fill="#18A8FA"/>
<rect x="70.2449" y="88.9625" width="21.6138" height="0.773582" fill="#18A8FA"/>
<path d="M139.332 61.1559C131.613 60.537 129.168 66.8288 128.911 70.0521C125.823 73.7653 124.537 76.4987 124.28 77.4012L125.437 78.5616C125.746 76.3955 128.525 72.6307 130.069 71.2125L133.157 71.9861C137.788 72.7596 139.332 70.4389 140.49 69.2785C142.237 67.5272 142.291 65.7974 142.806 64.2502C143.964 60.7691 143.578 61.9294 143.964 61.1559H139.332Z" fill="url(#paint2_linear_395_853)"/>
<path d="M128.911 71.2125C132.219 68.1182 140.788 61.1559 143.964 61.1559" stroke="white" stroke-width="0.2"/>
<path d="M137.016 65.0238C137.835 65.4282 140.448 65.8959 142.806 65.4106" stroke="white" stroke-width="0.2"/>
<path d="M134.701 66.571C135.753 67.7843 138.616 69.847 141.648 68.391" stroke="white" stroke-width="0.2"/>
<path d="M131.999 68.5049C132.642 69.4075 135.318 71.5993 137.788 71.5993" stroke="white" stroke-width="0.2"/>
<path d="M131.999 68.505C131.375 68.1826 130.542 66.9578 130.841 64.637" stroke="white" stroke-width="0.2"/>
<path d="M134.701 66.571C133.827 65.7271 132.394 63.6173 133.652 61.9295" stroke="white" stroke-width="0.2"/>
<path d="M137.016 65.0238C136.434 64.5081 135.618 63.0125 137.016 61.1559" stroke="white" stroke-width="0.2"/>
<path d="M74.2145 26.9572C67.9405 26.9572 63.3843 30.7342 61.8905 32.6226L60.21 37.155C93.074 37.7215 158.69 38.5147 158.242 37.155C157.794 35.7953 157.682 32.9342 156.001 29.5349C152.64 19.9037 144.797 13.6717 133.034 15.9379C124.681 17.5469 120.336 27.5237 120.71 31.4896C119.963 27.3349 115.78 18.9122 105.025 18.459C94.269 18.0058 87.4722 26.9572 85.4182 31.4896C84.2978 29.9788 80.4886 26.9572 74.2145 26.9572Z" fill="url(#paint3_linear_395_853)"/>
<path d="M42.7955 41.9922C49.5505 44.3525 49.2818 50.5794 48.3031 53.3978C49.5351 57.6871 49.6083 60.4761 49.4909 61.3345L48.0814 61.8821C48.6243 59.9374 47.6724 55.7198 46.8936 53.9454L43.9964 53.4456C39.7941 52.3692 39.3503 49.8325 38.8022 48.42C37.9749 46.2883 38.5715 44.8072 38.7107 43.3083C39.0238 39.9358 38.9194 41.06 38.8803 40.2625L42.7955 41.9922Z" fill="url(#paint4_linear_395_853)"/>
<path d="M47.8753 54.3765C46.2267 50.528 41.5664 41.4487 38.8817 40.2624" stroke="white" stroke-width="0.2"/>
<path d="M43.3203 46.1237C42.4785 46.1594 40.097 45.5788 38.2845 44.2892" stroke="white" stroke-width="0.2"/>
<path d="M44.7024 48.2964C43.3627 48.9275 40.1777 49.5995 38.1555 47.2385" stroke="white" stroke-width="0.2"/>
<path d="M46.2668 50.9388C45.3883 51.4605 42.3132 52.3116 40.2253 51.389" stroke="white" stroke-width="0.2"/>
<path d="M46.2669 50.9359C46.9138 50.8965 48.0738 50.1733 48.6823 48.1009" stroke="white" stroke-width="0.2"/>
<path d="M44.7025 48.2935C45.7549 47.9071 47.7502 46.6603 47.3125 44.7642" stroke="white" stroke-width="0.2"/>
<path d="M43.3204 46.1225C44.0047 45.9044 45.25 44.9457 44.7566 42.8546" stroke="white" stroke-width="0.2"/>
<path d="M55.272 53.3775H89.3344H125.811C131.175 53.3775 132.158 58.3106 131.979 60.7772V86.6761C131.979 92.5959 129.655 93.3711 128.493 93.0187H119.301C118.657 86.6761 116.303 81.2975 107.67 81.2975C99.0377 81.2975 96.9013 89.1427 97.0801 93.0187H71.9625C71.5155 88.7022 69.2157 81.2975 60.1907 81.2975C51.755 81.2975 49.5502 89.5831 49.9078 93.0187H41.8615C38.4285 93.8644 37.749 90.1998 37.8384 88.2618C37.6239 78.7479 39.8948 67.1198 40.7888 62.3628C42.2788 54.4346 51.7853 53.3775 55.272 53.3775Z" fill="url(#paint5_linear_395_853)"/>
<path d="M97.2623 93.2515L71.7889 92.8696C71.7889 90.5096 69.9714 86.9855 68.7012 85.0945H99.5781C97.4441 87.3637 97.2623 91.3605 97.2623 93.2515Z" fill="#213E5D"/>
<path d="M123.798 57.6192H110.836V69.2839H127.766V66.6328V61.0656C127.766 58.1494 126.708 57.6192 123.798 57.6192Z" fill="#B7DFFC"/>
<rect x="90.2021" y="57.089" width="16.4012" height="12.1949" fill="#B7DFFC"/>
<rect x="70.0974" y="57.089" width="15.8721" height="12.1949" fill="#B7DFFC"/>
<path d="M65.865 69.3392V57.1998C61.8514 56.5703 52.7538 55.8509 48.4726 58.009C44.9941 59.7625 44.1026 64.3882 43.3886 70.6881L42.5859 81.4787L51.6835 75.5438C58.6405 70.6881 63.2785 69.6989 65.865 69.3392Z" fill="#B7DFFC"/>
<path d="M114.685 92.0829C114.685 95.6175 111.722 98.5965 107.926 98.5965C104.13 98.5965 101.167 95.6175 101.167 92.0829C101.167 88.5484 104.13 85.5693 107.926 85.5693C111.722 85.5693 114.685 88.5484 114.685 92.0829Z" stroke="black" stroke-width="5"/>
<path d="M107.755 92.6337L105.258 95.1362C103.704 94.4689 103.685 93.1898 103.87 92.6337L107.755 92.6337Z" stroke="black" stroke-linejoin="round"/>
<path d="M108.033 91.7987L105.535 89.2969C106.201 87.7396 107.477 87.7206 108.032 87.9059L108.033 91.7987Z" stroke="#2E6598" stroke-linejoin="round"/>
<path d="M108.865 92.6336L111.362 93.4678" stroke="black" stroke-linejoin="round"/>
<path d="M67.5975 92.0829C67.5975 95.6175 64.6352 98.5965 60.8388 98.5965C57.0424 98.5965 54.0801 95.6175 54.0801 92.0829C54.0801 88.5484 57.0424 85.5693 60.8388 85.5693C64.6352 85.5693 67.5975 88.5484 67.5975 92.0829Z" stroke="black" stroke-width="5"/>
<path d="M60.1907 91.915V88.3759C61.7602 87.7467 62.6758 88.638 62.9374 89.1624L60.1907 91.915Z" stroke="black" stroke-linejoin="round"/>
<path d="M60.5831 92.7026L64.1146 92.7016C64.7429 94.2744 63.8538 95.1922 63.3306 95.4545L60.5831 92.7026Z" stroke="#2E6598" stroke-linejoin="round"/>
<path d="M59.4059 92.7015L57.0515 93.8812" stroke="black" stroke-linejoin="round"/>
<path d="M85.6962 69.2884L70.0005 57.4912V69.2884H85.6962Z" fill="white"/>
<path d="M105.316 69.2884L89.6201 57.4912V69.2884H105.316Z" fill="white"/>
<path d="M66.0766 69.2403V57.3099L43.7102 69.8936C42.7684 71.7812 42.4022 78.676 42.533 81.6908C49.5961 76.5787 60.7139 70.8133 66.0766 69.2403Z" fill="white"/>
<path d="M127.683 69.2884L110.81 57.8845V69.2884H127.683Z" fill="white"/>
<defs>
<linearGradient id="paint0_linear_395_853" x1="20.5152" y1="102.113" x2="20.5152" y2="109.99" gradientUnits="userSpaceOnUse">
<stop stop-color="#B9FFC0"/>
<stop offset="1" stop-color="#81D1D7" stop-opacity="0.5"/>
</linearGradient>
<linearGradient id="paint1_linear_395_853" x1="146.665" y1="103.661" x2="146.665" y2="108.443" gradientUnits="userSpaceOnUse">
<stop stop-color="#B9FFC0"/>
<stop offset="1" stop-color="#81D1D7" stop-opacity="0.5"/>
</linearGradient>
<linearGradient id="paint2_linear_395_853" x1="134.122" y1="61.1133" x2="134.122" y2="78.5616" gradientUnits="userSpaceOnUse">
<stop stop-color="#DDF7FF"/>
<stop offset="1" stop-color="#4B99E4" stop-opacity="0.3"/>
</linearGradient>
<linearGradient id="paint3_linear_395_853" x1="109.227" y1="15.4717" x2="109.227" y2="37.9058" gradientUnits="userSpaceOnUse">
<stop stop-color="#B9FFC0"/>
<stop offset="1" stop-color="#81D1D7" stop-opacity="0.5"/>
</linearGradient>
<linearGradient id="paint4_linear_395_853" x1="47.2158" y1="43.9023" x2="40.7109" y2="58.6257" gradientUnits="userSpaceOnUse">
<stop stop-color="#DDF7FF"/>
<stop offset="1" stop-color="#4B99E4" stop-opacity="0.3"/>
</linearGradient>
<linearGradient id="paint5_linear_395_853" x1="81.8238" y1="53.3775" x2="84.9247" y2="93.1423" gradientUnits="userSpaceOnUse">
<stop offset="0.0429412" stop-color="#4D9EEB"/>
<stop offset="1" stop-color="#2E6598"/>
</linearGradient>
</defs>
</svg>
