<svg width="50" height="46" viewBox="0 0 50 46" fill="none" xmlns="http://www.w3.org/2000/svg">
<path d="M47.8888 40.4757C47.9329 40.3926 47.9699 40.3113 47.9971 40.2212C48.0232 40.1358 48.0369 40.0509 48.0468 39.9605C48.0576 39.8622 48.0593 39.7673 48.0495 39.6671C48.0451 39.6223 48.0593 39.58 48.0506 39.5348L44.5294 21.3003C44.5166 21.2348 44.4776 21.1841 44.4568 21.1226C44.4366 21.0619 44.4379 20.9988 44.4092 20.9398C44.3946 20.9099 44.3675 20.8923 44.3512 20.864C44.2988 20.772 44.2335 20.6963 44.1636 20.6192C44.1074 20.5573 44.0561 20.495 43.991 20.4445C43.9122 20.383 43.8256 20.3409 43.7354 20.297C43.657 20.2587 43.5832 20.2199 43.4994 20.1963C43.415 20.1727 43.3289 20.1677 43.2395 20.16C43.136 20.1505 43.0362 20.1445 42.9315 20.1582C42.9 20.1623 42.871 20.1515 42.8392 20.1576C42.7759 20.1698 42.7273 20.2083 42.6678 20.2281C42.6057 20.2489 42.5408 20.2477 42.4805 20.2778L37.1873 22.8652C38.0325 21.1793 38.7226 19.0849 38.7226 16.7002C38.7226 9.15903 32.6097 3.01983 25.0826 2.98039C25.0638 2.98039 25.0488 2.98039 25.0338 2.98039C25.0188 2.98039 25.0038 2.98039 24.985 2.98039C17.4561 3.01983 11.3431 9.15903 11.3431 16.7002C11.3431 19.0626 12.0215 21.1405 12.8571 22.8193L6.25375 26.047C6.22629 26.0605 6.21009 26.0856 6.18392 26.1005C6.0845 26.1564 6.00081 26.2267 5.91759 26.3046C5.86137 26.3573 5.80526 26.4057 5.75866 26.4658C5.69916 26.5427 5.65702 26.628 5.61359 26.7173C5.57192 26.8023 5.5333 26.884 5.50889 26.9753C5.49997 27.009 5.47732 27.0348 5.47062 27.0696L1.94937 45.3041C1.94056 45.3499 1.95488 45.3929 1.95054 45.4386C1.94068 45.5367 1.94256 45.6314 1.95324 45.7311C1.96392 45.8282 1.98176 45.9187 2.01134 46.0103C2.02554 46.0551 2.02061 46.1013 2.03951 46.1454C2.06381 46.202 2.10325 46.2454 2.13353 46.2972C2.16029 46.3429 2.184 46.3873 2.21557 46.4298C2.3056 46.5513 2.40936 46.6568 2.52873 46.7424C2.54411 46.7535 2.55491 46.7688 2.57075 46.7792C2.71371 46.8736 2.8737 46.9336 3.04025 46.9723C3.0588 46.9766 3.07241 46.9897 3.09119 46.9933C3.18322 47.0108 3.27348 47.0189 3.36186 47.0191C3.36303 47.0191 3.36421 47.0196 3.36538 47.0196C3.36562 47.0196 3.36573 47.0195 3.36597 47.0195C3.36644 47.0195 3.36679 47.0196 3.36726 47.0196C3.55236 47.0196 3.72878 46.9775 3.89486 46.9113C3.90789 46.9062 3.92151 46.9087 3.93442 46.9032L16.8786 41.3557L32.6923 46.937C32.7032 46.9408 32.7141 46.9391 32.7251 46.9426C32.8692 46.9899 33.0191 47.0196 33.1731 47.0196C33.3501 47.0196 33.5198 46.9775 33.6821 46.9155C33.7018 46.9081 33.7225 46.9115 33.7421 46.9032L47.2036 41.1339C47.247 41.1154 47.2747 41.079 47.3152 41.0568C47.4011 41.0099 47.4764 40.9568 47.5499 40.8946C47.6213 40.8343 47.6855 40.7736 47.743 40.7019C47.8004 40.6306 47.8457 40.5566 47.8888 40.4757ZM8.16627 28.3225L14.3585 25.2958L16.9792 28.86L15.9845 38.5993L5.29714 43.1797L8.16627 28.3225ZM17.9099 38.661L18.6753 31.1669L23.8469 38.2005C24.1192 38.5705 24.6 38.7883 25.0582 38.7883C25.5164 38.7883 25.9484 38.5695 26.2207 38.2005L30.8156 31.9498L32.0091 43.6371L17.9099 38.661ZM33.9448 43.6768L32.5117 29.6424L33.9818 27.6425L42.0545 23.6963L44.9982 38.9397L33.9448 43.6768ZM25.0338 5.86501C30.9946 5.87815 35.838 10.7337 35.838 16.7002C35.838 19.5162 34.5835 21.8919 33.5205 23.4009C33.5167 23.4056 33.513 23.4093 33.5092 23.414L25.0338 34.944L16.5884 23.4572C16.5828 23.4506 16.579 23.4441 16.5734 23.4375C15.5029 21.9295 14.2278 19.5369 14.2278 16.7002C14.2278 10.7337 19.073 5.87815 25.0338 5.86501Z" fill="#1D1D1B"/>
<path d="M25.0583 22.783C28.4067 22.783 31.1317 20.0543 31.1317 16.7002C31.1317 13.346 28.4067 10.6173 25.0583 10.6173C21.7079 10.6173 18.9829 13.346 18.9829 16.7002C18.9829 20.0543 21.7079 22.783 25.0583 22.783ZM25.0583 12.5404C27.3475 12.5404 29.2086 14.4062 29.2086 16.7002C29.2086 18.9941 27.3475 20.8599 25.0583 20.8599C22.769 20.8599 20.906 18.9941 20.906 16.7002C20.906 14.4062 22.769 12.5404 25.0583 12.5404Z" fill="#1D1D1B"/>
</svg>
