<svg width="114" height="42" viewBox="0 0 114 42" fill="none" xmlns="http://www.w3.org/2000/svg">
<rect width="114" height="42" rx="20" fill="#FFF9F9"/>
<path fill-rule="evenodd" clip-rule="evenodd" d="M88 15.7221C88 14.2187 89.2792 13 90.8571 13H99.1429C100.721 13 102 14.2187 102 15.7221V23.7038C102 24.7945 101.327 25.7353 100.354 26.1697C100.166 26.2538 100.03 26.4326 100.03 26.639C100.03 27.3906 99.3905 28 98.6015 28H98.1429C97.3539 28 96.7143 27.3906 96.7143 26.639C96.7143 26.5213 96.6189 26.4259 96.5012 26.4259H93.5289C93.4112 26.4259 93.3158 26.5213 93.3158 26.639C93.3158 27.3906 92.6762 28 91.8872 28H91.4286C90.6396 28 90 27.3906 90 26.639C90 26.4385 89.8668 26.2652 89.6827 26.186C88.6905 25.7592 88 24.8083 88 23.7038V15.7221ZM91.7973 24.841H91.4997C90.501 24.7686 89.7143 23.9736 89.7143 23.0036C89.7143 21.9858 90.5803 21.1608 91.6485 21.1608C92.7167 21.1608 93.5827 21.9858 93.5827 23.0036C93.5827 23.9736 92.796 24.7686 91.7973 24.841ZM98.5116 24.841H98.214C97.2153 24.7686 96.4286 23.9736 96.4286 23.0036C96.4286 21.9858 97.2945 21.1608 98.3628 21.1608C99.431 21.1608 100.297 21.9858 100.297 23.0036C100.297 23.9736 99.5103 24.7686 98.5116 24.841ZM89.7143 15.5806C89.7143 14.9792 90.226 14.4918 90.8571 14.4918H99.2556C99.8868 14.4918 100.398 14.9792 100.398 15.5806V18.0537C100.398 18.6551 99.8868 19.1426 99.2556 19.1426H90.8571C90.226 19.1426 89.7143 18.6551 89.7143 18.0537V15.5806Z" fill="url(#paint0_linear_95_5264)"/>
<path d="M11.84 26V15.2H13.775L17.96 20.18L22.13 15.2H24.08V26H22.445V17.375L17.96 22.715L13.46 17.375V26H11.84ZM27.631 26C27.091 26 26.631 25.81 26.251 25.43C25.871 25.05 25.681 24.59 25.681 24.05V19.25C25.681 18.71 25.871 18.25 26.251 17.87C26.631 17.49 27.091 17.3 27.631 17.3H32.581C33.121 17.3 33.581 17.49 33.961 17.87C34.341 18.25 34.531 18.71 34.531 19.25V22.46H27.301V23.825C27.301 24.045 27.336 24.195 27.406 24.275C27.486 24.345 27.636 24.38 27.856 24.38H34.531V26H27.631ZM27.301 20.945H32.896V19.475C32.896 19.255 32.861 19.11 32.791 19.04C32.721 18.96 32.576 18.92 32.356 18.92H27.856C27.636 18.92 27.486 18.96 27.406 19.04C27.336 19.11 27.301 19.255 27.301 19.475V20.945ZM38.0468 26C37.5068 26 37.0468 25.81 36.6668 25.43C36.2868 25.05 36.0968 24.59 36.0968 24.05V14.555H37.7168V17.3H41.2868V18.92H37.7168V23.825C37.7168 24.045 37.7518 24.195 37.8218 24.275C37.9018 24.345 38.0518 24.38 38.2718 24.38H41.2868V26H38.0468ZM44.565 26C44.025 26 43.565 25.81 43.185 25.43C42.805 25.05 42.615 24.59 42.615 24.05V20.84H49.83V19.475C49.83 19.255 49.795 19.11 49.725 19.04C49.655 18.96 49.51 18.92 49.29 18.92H42.615V17.3H49.515C50.055 17.3 50.515 17.49 50.895 17.87C51.275 18.25 51.465 18.71 51.465 19.25V26H44.565ZM44.79 24.38H49.83V22.355H44.235V23.825C44.235 24.045 44.27 24.195 44.34 24.275C44.42 24.345 44.57 24.38 44.79 24.38Z" fill="black"/>
<path d="M53.135 26V15.2H61.535C62.075 15.2 62.535 15.39 62.915 15.77C63.295 16.15 63.485 16.61 63.485 17.15V19.355C63.485 19.485 63.47 19.615 63.44 19.745C63.42 19.875 63.38 19.995 63.32 20.105C63.52 20.385 63.67 20.645 63.77 20.885C63.88 21.125 63.935 21.375 63.935 21.635V24.05C63.935 24.59 63.74 25.05 63.35 25.43C62.97 25.81 62.51 26 61.97 26H53.135ZM55.31 24.38H61.745C61.965 24.38 62.11 24.345 62.18 24.275C62.26 24.195 62.3 24.045 62.3 23.825V21.86C62.3 21.64 62.26 21.495 62.18 21.425C62.11 21.345 61.965 21.305 61.745 21.305H55.31C55.09 21.305 54.94 21.345 54.86 21.425C54.79 21.495 54.755 21.64 54.755 21.86V23.825C54.755 24.045 54.79 24.195 54.86 24.275C54.94 24.345 55.09 24.38 55.31 24.38ZM55.31 19.685H61.31C61.53 19.685 61.675 19.65 61.745 19.58C61.815 19.5 61.85 19.35 61.85 19.13V17.375C61.85 17.155 61.815 17.01 61.745 16.94C61.675 16.86 61.53 16.82 61.31 16.82H55.31C55.09 16.82 54.94 16.86 54.86 16.94C54.79 17.01 54.755 17.155 54.755 17.375V19.13C54.755 19.35 54.79 19.5 54.86 19.58C54.94 19.65 55.09 19.685 55.31 19.685ZM67.4755 26C66.9355 26 66.4755 25.81 66.0955 25.43C65.7155 25.05 65.5255 24.59 65.5255 24.05V17.3H67.1455V23.825C67.1455 24.045 67.1805 24.195 67.2505 24.275C67.3305 24.345 67.4805 24.38 67.7005 24.38H72.2005C72.4205 24.38 72.5655 24.345 72.6355 24.275C72.7155 24.195 72.7555 24.045 72.7555 23.825V17.3H74.3755V24.05C74.3755 24.59 74.1855 25.05 73.8055 25.43C73.4255 25.81 72.9655 26 72.4255 26H67.4755ZM77.5665 26C77.0265 26 76.5665 25.81 76.1865 25.43C75.8065 25.05 75.6165 24.59 75.6165 24.05V23.825H77.2365V23.915C77.2365 24.075 77.2715 24.195 77.3415 24.275C77.4215 24.345 77.5415 24.38 77.7015 24.38H82.3815C82.5415 24.38 82.6565 24.345 82.7265 24.275C82.7965 24.195 82.8315 24.075 82.8315 23.915V22.925C82.8315 22.765 82.7965 22.65 82.7265 22.58C82.6565 22.5 82.5415 22.46 82.3815 22.46H77.5665C77.0265 22.46 76.5665 22.27 76.1865 21.89C75.8065 21.51 75.6165 21.05 75.6165 20.51V19.25C75.6165 18.71 75.8065 18.25 76.1865 17.87C76.5665 17.49 77.0265 17.3 77.5665 17.3H82.5165C83.0565 17.3 83.5165 17.49 83.8965 17.87C84.2765 18.25 84.4665 18.71 84.4665 19.25V19.475H82.8315V19.385C82.8315 19.225 82.7965 19.11 82.7265 19.04C82.6565 18.96 82.5415 18.92 82.3815 18.92H77.7015C77.5415 18.92 77.4215 18.96 77.3415 19.04C77.2715 19.11 77.2365 19.225 77.2365 19.385V20.375C77.2365 20.535 77.2715 20.655 77.3415 20.735C77.4215 20.805 77.5415 20.84 77.7015 20.84H82.5165C83.0565 20.84 83.5165 21.03 83.8965 21.41C84.2765 21.79 84.4665 22.25 84.4665 22.79V24.05C84.4665 24.59 84.2765 25.05 83.8965 25.43C83.5165 25.81 83.0565 26 82.5165 26H77.5665Z" fill="#18A8FA"/>
<defs>
<linearGradient id="paint0_linear_95_5264" x1="95" y1="13" x2="95" y2="28" gradientUnits="userSpaceOnUse">
<stop stop-color="#18A8FA"/>
<stop offset="1" stop-color="#28D828"/>
</linearGradient>
</defs>
</svg>
