<svg width="28" height="33" viewBox="0 0 28 33" fill="none" xmlns="http://www.w3.org/2000/svg">
<path d="M14.2422 16.0632V22.0037C14.1275 22.0011 14.0127 21.9998 13.8979 22C13.7835 22.0001 13.6691 22.0015 13.5547 22.0043V15.5196V15.5196V15.5195V15.5194V15.5194V15.5193V15.5192V15.5191V15.5191V15.519V15.5189V15.5188V15.5188V15.5187V15.5186V15.5185V15.5185V15.5184V15.5183V15.5182V15.5182V15.5181V15.518V15.518V15.5179V15.5178V15.5177V15.5177V15.5176V15.5175V15.5174V15.5174V15.5173V15.5172V15.5171V15.5171V15.517V15.5169V15.5168V15.5168V15.5167V15.5166V15.5165V15.5165V15.5164V15.5163V15.5162V15.5162V15.5161V15.516V15.516V15.5159V15.5158V15.5157V15.5157V15.5156V15.5155V15.5154V15.5154V15.5153V15.5152V15.5151V15.5151V15.515V15.5149V15.5148V15.5148V15.5147V15.5146V15.5145V15.5145V15.5144V15.5143V15.5142V15.5142V15.5141V15.514V15.5139V15.5139V15.5138V15.5137V15.5136V15.5136V15.5135V15.5134V15.5133V15.5133V15.5132V15.5131V15.513V15.513V15.5129V15.5128V15.5127V15.5127V15.5126V15.5125V15.5124V15.5124V15.5123V15.5122V15.5122V15.5121V15.512V15.5119V15.5119V15.5118V15.5117V15.5116V15.5116V15.5115V15.5114V15.5113V15.5113V15.5112V15.5111V15.511V15.511V15.5109V15.5108V15.5107V15.5107V15.5106V15.5105V15.5104V15.5104V15.5103V15.5102V15.5101V15.5101V15.51V15.5099V15.5098V15.5098V15.5097V15.5096V15.5095V15.5095V15.5094V15.5093V15.5092V15.5092V15.5091V15.509V15.5089V15.5089V15.5088V15.5087V15.5086V15.5086V15.5085V15.5084V15.5083V15.5083V15.5082V15.5081V15.508V15.508V15.5079V15.5078V15.5077V15.5077V15.5076V15.5075V15.5074V15.5074V15.5073V15.5072V15.5071V15.5071V15.507V15.5069V15.5068V15.5068V15.5067V15.5066V15.5065V15.5065V15.5064V15.5063V15.5062V15.5062V15.5061V15.506V15.5059V15.5059V15.5058V15.5057V15.5056V15.5056V15.5055V15.5054V15.5053V15.5053V15.5052V15.5051V15.505V15.5049V15.5049V15.5048V15.5047V15.5046V15.5046V15.5045V15.5044V15.5043V15.5043V15.5042V15.5041V15.504V15.504V15.5039V15.5038V15.5037V15.5037V15.5036V15.5035V15.5034V15.5034V15.5033V15.5032V15.5031V15.5031V15.503V15.5029V15.5028V15.5028V15.5027V15.5026V15.5025V15.5025V15.5024V15.5023V15.5022V15.5022V15.5021V15.502V15.5019V15.5019V15.5018V15.5017V15.5016V15.5016V15.5015V15.5014V15.5013V15.5013V15.5012V15.5011V15.501V15.501V15.5009V15.5008V15.5007V15.5007V15.5006V15.5005V15.5004V15.5004V15.5003V15.5002V15.5001V15.5001V15.5V15.4999V15.4998V15.4998V15.4997V15.4996V15.4995V15.4995V15.4994V15.4993V15.4992V15.4992V15.4991V15.499V15.4989V15.4989V15.4988V15.4987V15.4986V15.4986V15.4985V15.4984V15.4983V15.4983V15.4982V15.4981V15.498V15.4979V15.4979V15.4978V15.4977V15.4976V15.4976V15.4975V15.4974V15.4973V15.4973V15.4972V15.4971V15.497V15.497V15.4969V15.4968V15.4967V15.4967V15.4966V15.4965V15.4964V15.4964V15.4963V15.4962V15.4961V15.4961V15.496V15.4959V15.4958V15.4958V15.4957V15.4956V15.4955V15.4955V15.4954V15.4953V15.4952V15.4952V15.4951V15.495V15.4949V15.4949V15.4948V15.4947V15.4946V15.4946V15.4945V15.4944V15.4943V15.4943V15.4942V15.4941V15.494V15.494V15.4939V15.4938V15.4937V15.4937V15.4936V15.4935V15.4934V15.4934V15.4933V15.4932V15.4931V15.4931V15.493V15.4929V15.4928V15.4928V15.4927V15.4926V15.4925V15.4925V15.4924V15.4923V15.4922V15.4922V15.4921V15.492V15.4919V15.4919V15.4918V15.4917V15.4916V15.4916V15.4915V15.4914V15.4913V15.4913V15.4912V15.4911V15.491V15.491V15.4909V15.4908V15.4907V15.4907V15.4906V15.4905V15.4904V15.4904V15.4903V15.4902V15.4901V15.4901V15.49V15.4899V15.4898V15.4898V15.4897V15.4896V15.4895V15.4895V15.4894V15.4893V15.4892V15.4892V15.4891V15.489V15.4889V15.4889V15.4888V15.4887V15.4886V15.4886V15.4885V15.4884V15.4883V15.4883V15.4882V15.4881V15.488V15.488V15.4879V15.4878V15.4877V15.4877V15.4876V15.4875V15.4874V15.4874V15.4873V15.4872V15.4872V15.4871V15.487V15.4869V15.4869V15.4868V15.4867V15.4866V15.4866V15.4865V15.4864V15.4863V15.4863V15.4862V15.4861V15.486V15.486V15.4859V15.4858V15.4857V15.4857V15.4856V15.4855V15.4854V15.4854V15.4853V15.4852V15.4851V15.4851V15.485V15.4849V15.4848V15.4848V15.4847V15.4846V15.4845V15.4845V15.4844V15.4843V15.4843V15.4842V15.4841V15.484V15.484V15.4839V15.4838V15.4837V15.4837V15.4836V15.4835V15.4834V15.4834V15.4833V15.4832V15.4831V15.4831V15.483V15.4829V15.4828V15.4828V15.4827V15.4826V15.4825V15.4825V15.4824V15.4823V15.4823V15.4822V15.4821V15.482V15.482V15.4819V15.4818V15.4817V15.4817V15.4816V15.4815V15.4814V15.4814L13.5547 6.74996L13.5547 6.74985C13.5547 6.68385 13.5707 6.61973 13.6003 6.56358C13.6297 6.5075 13.6712 6.46204 13.7193 6.42992C13.7673 6.39788 13.8208 6.37974 13.8748 6.37565C13.9288 6.37156 13.9836 6.38149 14.0344 6.40544C14.0344 6.40544 14.0344 6.40544 14.0344 6.40545L23.3157 10.7804L23.3159 10.7806C23.3744 10.8081 23.4268 10.8538 23.4647 10.9149C23.5028 10.9761 23.5239 11.0491 23.5239 11.125C23.5239 11.2008 23.5028 11.2738 23.4648 11.335C23.4268 11.3961 23.3744 11.4418 23.3159 11.4694L23.3157 11.4695L14.5291 15.611L14.2422 15.7462V16.0632Z" fill="#18A8FA" stroke="#3617D0"/>
<path d="M24.3408 30.1141L24.3408 30.1141L24.342 30.12C24.3805 30.3074 24.3782 30.5016 24.3356 30.688C24.2931 30.8736 24.2117 31.0459 24.0985 31.1929C23.8797 31.4696 23.5592 31.625 23.1797 31.625H4.61715C4.23576 31.625 3.91688 31.471 3.69921 31.1934C3.58568 31.0463 3.5041 30.8738 3.46146 30.6879C3.41872 30.5015 3.41644 30.3073 3.45482 30.1198L3.45486 30.1198L3.45596 30.1141C3.87864 27.9198 5.18787 26.0711 7.27852 24.7672L7.27857 24.7672C8.7784 23.8316 10.6146 23.2319 12.5547 23.0409V26.8613C12.5547 27.2203 12.692 27.568 12.9419 27.8271C13.1923 28.0869 13.536 28.2363 13.8984 28.2363C14.2608 28.2363 14.6045 28.0869 14.8549 27.8271C15.1048 27.568 15.2422 27.2203 15.2422 26.8613V23.0409C17.1822 23.2319 19.0184 23.8316 20.5182 24.7672L20.5183 24.7672C22.6089 26.0711 23.9182 27.9198 24.3408 30.1141Z" fill="#18A8FA" stroke="#3617D0"/>
<path d="M14.5636 4.41506L13.6485 1" stroke="#3617D0" stroke-width="2" stroke-linejoin="round"/>
<path d="M10.3985 7L7.3985 6" stroke="#3617D0" stroke-width="2" stroke-linejoin="round"/>
<path d="M19.3985 6L22.3985 5" stroke="#3617D0" stroke-width="2" stroke-linejoin="round"/>
</svg>
