<svg width="51" height="50" viewBox="0 0 51 50" fill="none" xmlns="http://www.w3.org/2000/svg">
<circle cx="25.3985" cy="25" r="25" fill="url(#paint0_linear_118_1576)"/>
<path d="M25.2422 22.0633V28.0038C25.1275 28.0011 25.0127 27.9999 24.8979 28C24.7835 28.0002 24.6691 28.0016 24.5547 28.0043V21.5197V21.5196V21.5196V21.5195V21.5194V21.5193V21.5193V21.5192V21.5191V21.519V21.519V21.5189V21.5188V21.5187V21.5187V21.5186V21.5185V21.5184V21.5184V21.5183V21.5182V21.5182V21.5181V21.518V21.5179V21.5179V21.5178V21.5177V21.5176V21.5176V21.5175V21.5174V21.5173V21.5173V21.5172V21.5171V21.517V21.517V21.5169V21.5168V21.5167V21.5167V21.5166V21.5165V21.5164V21.5164V21.5163V21.5162V21.5162V21.5161V21.516V21.5159V21.5159V21.5158V21.5157V21.5156V21.5156V21.5155V21.5154V21.5153V21.5153V21.5152V21.5151V21.515V21.515V21.5149V21.5148V21.5147V21.5147V21.5146V21.5145V21.5144V21.5144V21.5143V21.5142V21.5141V21.5141V21.514V21.5139V21.5138V21.5138V21.5137V21.5136V21.5135V21.5135V21.5134V21.5133V21.5132V21.5132V21.5131V21.513V21.5129V21.5129V21.5128V21.5127V21.5127V21.5126V21.5125V21.5124V21.5124V21.5123V21.5122V21.5121V21.5121V21.512V21.5119V21.5118V21.5118V21.5117V21.5116V21.5115V21.5115V21.5114V21.5113V21.5112V21.5112V21.5111V21.511V21.5109V21.5109V21.5108V21.5107V21.5106V21.5106V21.5105V21.5104V21.5103V21.5103V21.5102V21.5101V21.51V21.51V21.5099V21.5098V21.5097V21.5097V21.5096V21.5095V21.5094V21.5094V21.5093V21.5092V21.5091V21.5091V21.509V21.5089V21.5088V21.5088V21.5087V21.5086V21.5085V21.5085V21.5084V21.5083V21.5082V21.5082V21.5081V21.508V21.5079V21.5079V21.5078V21.5077V21.5076V21.5076V21.5075V21.5074V21.5073V21.5073V21.5072V21.5071V21.507V21.507V21.5069V21.5068V21.5067V21.5067V21.5066V21.5065V21.5064V21.5064V21.5063V21.5062V21.5061V21.5061V21.506V21.5059V21.5058V21.5058V21.5057V21.5056V21.5055V21.5055V21.5054V21.5053V21.5052V21.5052V21.5051V21.505V21.5049V21.5049V21.5048V21.5047V21.5046V21.5046V21.5045V21.5044V21.5043V21.5043V21.5042V21.5041V21.504V21.5039V21.5039V21.5038V21.5037V21.5036V21.5036V21.5035V21.5034V21.5033V21.5033V21.5032V21.5031V21.503V21.503V21.5029V21.5028V21.5027V21.5027V21.5026V21.5025V21.5024V21.5024V21.5023V21.5022V21.5021V21.5021V21.502V21.5019V21.5018V21.5018V21.5017V21.5016V21.5015V21.5015V21.5014V21.5013V21.5012V21.5012V21.5011V21.501V21.5009V21.5009V21.5008V21.5007V21.5006V21.5006V21.5005V21.5004V21.5003V21.5003V21.5002V21.5001V21.5V21.5V21.4999V21.4998V21.4997V21.4997V21.4996V21.4995V21.4994V21.4994V21.4993V21.4992V21.4991V21.4991V21.499V21.4989V21.4988V21.4988V21.4987V21.4986V21.4985V21.4985V21.4984V21.4983V21.4982V21.4982V21.4981V21.498V21.4979V21.4979V21.4978V21.4977V21.4976V21.4975V21.4975V21.4974V21.4973V21.4972V21.4972V21.4971V21.497V21.4969V21.4969V21.4968V21.4967V21.4966V21.4966V21.4965V21.4964V21.4963V21.4963V21.4962V21.4961V21.496V21.496V21.4959V21.4958V21.4957V21.4957V21.4956V21.4955V21.4954V21.4954V21.4953V21.4952V21.4951V21.4951V21.495V21.4949V21.4948V21.4948V21.4947V21.4946V21.4945V21.4945V21.4944V21.4943V21.4942V21.4942V21.4941V21.494V21.4939V21.4939V21.4938V21.4937V21.4936V21.4936V21.4935V21.4934V21.4933V21.4933V21.4932V21.4931V21.493V21.493V21.4929V21.4928V21.4927V21.4927V21.4926V21.4925V21.4924V21.4924V21.4923V21.4922V21.4921V21.4921V21.492V21.4919V21.4918V21.4918V21.4917V21.4916V21.4915V21.4915V21.4914V21.4913V21.4912V21.4912V21.4911V21.491V21.4909V21.4909V21.4908V21.4907V21.4906V21.4906V21.4905V21.4904V21.4903V21.4903V21.4902V21.4901V21.49V21.49V21.4899V21.4898V21.4897V21.4897V21.4896V21.4895V21.4894V21.4894V21.4893V21.4892V21.4891V21.4891V21.489V21.4889V21.4888V21.4888V21.4887V21.4886V21.4885V21.4885V21.4884V21.4883V21.4882V21.4882V21.4881V21.488V21.4879V21.4879V21.4878V21.4877V21.4877V21.4876V21.4875V21.4874V21.4874V21.4873V21.4872V21.4871V21.4871V21.487V21.4869V21.4868V21.4868V21.4867V21.4866V21.4865V21.4865V21.4864V21.4863V21.4862V21.4862V21.4861V21.486V21.4859V21.4859V21.4858V21.4857V21.4856V21.4856V21.4855V21.4854V21.4853V21.4853V21.4852V21.4851V21.485V21.485V21.4849V21.4848V21.4847V21.4847V21.4846V21.4845V21.4845V21.4844V21.4843V21.4842V21.4842V21.4841V21.484V21.4839V21.4839V21.4838V21.4837V21.4836V21.4836V21.4835V21.4834V21.4833V21.4833V21.4832V21.4831V21.483V21.483V21.4829V21.4828V21.4827V21.4827V21.4826V21.4825V21.4825V21.4824V21.4823V21.4822V21.4822V21.4821V21.482V21.4819V21.4819V21.4818V21.4817V21.4816V21.4816V21.4815V21.4814L24.5547 12.75L24.5547 12.7499C24.5547 12.6839 24.5707 12.6198 24.6003 12.5636C24.6297 12.5076 24.6712 12.4621 24.7193 12.43C24.7673 12.3979 24.8208 12.3798 24.8748 12.3757C24.9288 12.3716 24.9836 12.3815 25.0344 12.4055C25.0344 12.4055 25.0344 12.4055 25.0344 12.4055L34.3157 16.7805L34.3159 16.7806C34.3744 16.8081 34.4268 16.8539 34.4647 16.915C34.5028 16.9762 34.5239 17.0491 34.5239 17.125C34.5239 17.2009 34.5028 17.2739 34.4648 17.3351C34.4268 17.3961 34.3744 17.4419 34.3159 17.4694L34.3157 17.4695L25.5291 21.611L25.2422 21.7462V22.0633Z" fill="#18A8FA" stroke="#3617D0"/>
<path d="M35.3408 36.1141L35.3408 36.1141L35.342 36.12C35.3805 36.3074 35.3782 36.5016 35.3356 36.688C35.2931 36.8736 35.2117 37.0459 35.0985 37.1929C34.8797 37.4696 34.5592 37.625 34.1797 37.625H15.6172C15.2358 37.625 14.9169 37.471 14.6992 37.1934C14.5857 37.0463 14.5041 36.8738 14.4615 36.6879C14.4187 36.5015 14.4164 36.3073 14.4548 36.1198L14.4549 36.1198L14.456 36.1141C14.8786 33.9198 16.1879 32.0711 18.2785 30.7672L18.2786 30.7672C19.7784 29.8316 21.6146 29.2319 23.5547 29.0409V32.8613C23.5547 33.2203 23.692 33.568 23.9419 33.8271C24.1923 34.0869 24.536 34.2363 24.8984 34.2363C25.2608 34.2363 25.6045 34.0869 25.8549 33.8271C26.1048 33.568 26.2422 33.2203 26.2422 32.8613V29.0409C28.1822 29.2319 30.0184 29.8316 31.5182 30.7672L31.5183 30.7672C33.6089 32.0711 34.9182 33.9198 35.3408 36.1141Z" fill="#18A8FA" stroke="#3617D0"/>
<path d="M25.5636 10.4151L24.6485 7" stroke="#3617D0" stroke-width="2" stroke-linejoin="round"/>
<path d="M21.3985 13L18.3985 12" stroke="#3617D0" stroke-width="2" stroke-linejoin="round"/>
<path d="M30.3985 12L33.3985 11" stroke="#3617D0" stroke-width="2" stroke-linejoin="round"/>
<defs>
<linearGradient id="paint0_linear_118_1576" x1="25.3985" y1="0" x2="25.3985" y2="50" gradientUnits="userSpaceOnUse">
<stop stop-color="#C9F5FF" stop-opacity="0.7"/>
<stop offset="0.739583" stop-color="#C3FAE9" stop-opacity="0.746875"/>
<stop offset="1" stop-color="#BDFFD0" stop-opacity="0.8"/>
</linearGradient>
</defs>
</svg>
