<svg width="50" height="50" viewBox="0 0 50 50" fill="none" xmlns="http://www.w3.org/2000/svg">
<circle cx="25" cy="25" r="25" fill="url(#paint0_linear_118_1870)"/>
<mask id="path-2-inside-1_118_1870" fill="white">
<path fill-rule="evenodd" clip-rule="evenodd" d="M28.253 40.7823C36.1301 39.2805 42.0843 32.3567 42.0843 24.0422C42.0843 14.63 34.4543 7 25.0422 7C15.63 7 8 14.63 8 24.0422C8 32.5296 14.2045 39.5679 22.3253 40.869V48H28.253V40.7823ZM25.0422 37.1325C32.2718 37.1325 38.1325 31.2718 38.1325 24.0422C38.1325 16.8126 32.2718 10.9518 25.0422 10.9518C17.8126 10.9518 11.9518 16.8126 11.9518 24.0422C11.9518 31.2718 17.8126 37.1325 25.0422 37.1325Z"/>
</mask>
<path fill-rule="evenodd" clip-rule="evenodd" d="M28.253 40.7823C36.1301 39.2805 42.0843 32.3567 42.0843 24.0422C42.0843 14.63 34.4543 7 25.0422 7C15.63 7 8 14.63 8 24.0422C8 32.5296 14.2045 39.5679 22.3253 40.869V48H28.253V40.7823ZM25.0422 37.1325C32.2718 37.1325 38.1325 31.2718 38.1325 24.0422C38.1325 16.8126 32.2718 10.9518 25.0422 10.9518C17.8126 10.9518 11.9518 16.8126 11.9518 24.0422C11.9518 31.2718 17.8126 37.1325 25.0422 37.1325Z" fill="#18A8FA"/>
<path d="M28.253 40.7823L28.0657 39.8L27.253 39.955V40.7823H28.253ZM22.3253 40.869H23.3253V40.0164L22.4835 39.8815L22.3253 40.869ZM22.3253 48H21.3253V49H22.3253V48ZM28.253 48V49H29.253V48H28.253ZM41.0843 24.0422C41.0843 31.8677 35.4801 38.3865 28.0657 39.8L28.4403 41.7646C36.7801 40.1746 43.0843 32.8457 43.0843 24.0422H41.0843ZM25.0422 8C33.902 8 41.0843 15.1823 41.0843 24.0422H43.0843C43.0843 14.0778 35.0066 6 25.0422 6V8ZM9 24.0422C9 15.1823 16.1823 8 25.0422 8V6C15.0778 6 7 14.0778 7 24.0422H9ZM22.4835 39.8815C14.84 38.657 9 32.0306 9 24.0422H7C7 33.0286 13.569 40.4789 22.1671 41.8564L22.4835 39.8815ZM23.3253 48V40.869H21.3253V48H23.3253ZM28.253 47H22.3253V49H28.253V47ZM27.253 40.7823V48H29.253V40.7823H27.253ZM37.1325 24.0422C37.1325 30.7195 31.7195 36.1325 25.0422 36.1325V38.1325C32.8241 38.1325 39.1325 31.8241 39.1325 24.0422H37.1325ZM25.0422 11.9518C31.7195 11.9518 37.1325 17.3648 37.1325 24.0422H39.1325C39.1325 16.2603 32.8241 9.9518 25.0422 9.9518V11.9518ZM12.9518 24.0422C12.9518 17.3648 18.3648 11.9518 25.0422 11.9518V9.9518C17.2603 9.9518 10.9518 16.2603 10.9518 24.0422H12.9518ZM25.0422 36.1325C18.3648 36.1325 12.9518 30.7195 12.9518 24.0422H10.9518C10.9518 31.8241 17.2603 38.1325 25.0422 38.1325V36.1325Z" fill="#3617D0" mask="url(#path-2-inside-1_118_1870)"/>
<path fill-rule="evenodd" clip-rule="evenodd" d="M18 18.9035C18 17.3 19.3706 16 21.0612 16H29.9388C31.6294 16 33 17.3 33 18.9035V27.4174C33 28.7062 32.1147 29.7989 30.8894 30.1782V30.5482C30.8894 31.35 30.2041 32 29.3588 32H28.8673C28.022 32 27.3367 31.35 27.3367 30.5482V30.3209H23.6955V30.5482C23.6955 31.35 23.0102 32 22.1649 32H21.6735C20.8281 32 20.1429 31.35 20.1429 30.5482V30.188C18.9009 29.818 18 28.7175 18 27.4174V18.9035ZM22.0685 28.6304H21.7497C20.6796 28.5532 19.8367 27.7052 19.8367 26.6705C19.8367 25.5849 20.7646 24.7049 21.9091 24.7049C23.0536 24.7049 23.9815 25.5849 23.9815 26.6705C23.9815 27.7052 23.1386 28.5532 22.0685 28.6304ZM29.2624 28.6304H28.9436C27.8735 28.5532 27.0306 27.7052 27.0306 26.6705C27.0306 25.5849 27.9584 24.7049 29.103 24.7049C30.2475 24.7049 31.1753 25.5849 31.1753 26.6705C31.1753 27.7052 30.3324 28.5532 29.2624 28.6304ZM19.8367 18.7526C19.8367 18.1112 20.385 17.5912 21.0612 17.5912H30.0596C30.7359 17.5912 31.2841 18.1112 31.2841 18.7526V21.3906C31.2841 22.0321 30.7359 22.5521 30.0596 22.5521H21.0612C20.385 22.5521 19.8367 22.0321 19.8367 21.3906V18.7526Z" fill="#18A8FA"/>
<defs>
<linearGradient id="paint0_linear_118_1870" x1="25" y1="0" x2="25" y2="50" gradientUnits="userSpaceOnUse">
<stop stop-color="#C9F5FF" stop-opacity="0.7"/>
<stop offset="0.739583" stop-color="#C3FAE9" stop-opacity="0.746875"/>
<stop offset="1" stop-color="#BDFFD0" stop-opacity="0.8"/>
</linearGradient>
</defs>
</svg>
