<svg width="50" height="50" viewBox="0 0 50 50" fill="none" xmlns="http://www.w3.org/2000/svg">
<circle cx="25" cy="25" r="25" fill="url(#paint0_linear_118_1864)"/>
<path d="M32.6188 30.7888L32.2637 30.8963V31.2673V31.8223C32.2637 32.7143 31.4727 33.5 30.4168 33.5H29.6633C28.6073 33.5 27.8163 32.7143 27.8163 31.8223V31.4814V30.9814H27.3163H21.7331H21.2331V31.4814V31.8223C21.2331 32.7143 20.4421 33.5 19.3861 33.5H18.6327C17.5767 33.5 16.7857 32.7143 16.7857 31.8223V31.282V30.9069L16.4256 30.802C14.7073 30.3012 13.5 28.8267 13.5 27.1261V14.3553C13.5 12.2607 15.3418 10.5 17.6939 10.5H31.3061C33.6582 10.5 35.5 12.2607 35.5 14.3553V27.1261C35.5 28.8121 34.3136 30.2755 32.6188 30.7888ZM19.2384 29.4456H19.256L19.2736 29.4443C21.142 29.3124 22.6716 27.8532 22.6716 26.0057C22.6716 24.0666 20.9891 22.5573 18.994 22.5573C16.9988 22.5573 15.3163 24.0666 15.3163 26.0057C15.3163 27.8532 16.8459 29.3124 18.7143 29.4443L18.7319 29.4456H18.7495H19.2384ZM30.269 29.4456H30.2866L30.3042 29.4443C32.1726 29.3124 33.7022 27.8532 33.7022 26.0057C33.7022 24.0666 32.0198 22.5573 30.0246 22.5573C28.0294 22.5573 26.3469 24.0666 26.3469 26.0057C26.3469 27.8532 27.8765 29.3124 29.7449 29.4443L29.7625 29.4456H29.7801H30.269ZM17.6939 11.8868C16.4167 11.8868 15.3163 12.8561 15.3163 14.1289V18.086C15.3163 19.3588 16.4167 20.3281 17.6939 20.3281H31.4914C32.7686 20.3281 33.869 19.3588 33.869 18.086V14.1289C33.869 12.8561 32.7686 11.8868 31.4914 11.8868H17.6939Z" fill="#18A8FA" stroke="#3617D0"/>
<path d="M15 39H33.5C36 39 36 38.5385 36 37.6154C36 36.6923 36 36.2308 33.5 35.7692H24.5C24.1667 35.6154 23.5 35.1231 23.5 34.3846C23.5 33.4615 24.5 33 25 33C25.4 33 26.5 33 28.5 33" stroke="#3617D0" stroke-linejoin="round"/>
<defs>
<linearGradient id="paint0_linear_118_1864" x1="25" y1="0" x2="25" y2="50" gradientUnits="userSpaceOnUse">
<stop stop-color="#C9F5FF" stop-opacity="0.7"/>
<stop offset="0.739583" stop-color="#C3FAE9" stop-opacity="0.746875"/>
<stop offset="1" stop-color="#BDFFD0" stop-opacity="0.8"/>
</linearGradient>
</defs>
</svg>
